<svg width="20" height="19" fill="none" xmlns="http://www.w3.org/2000/svg"><path d="M4.533 14.322c.26-.596.513-1.125.834-1.616a5.993 5.993 0 011.3-1.43c.373-.3.78-.554 1.21-.744a4.78 4.78 0 01.6-.22 3.845 3.845 0 01-.484-.8c-.205-.465-.303-.972-.303-1.634 0-.845.258-1.951.821-2.758.466-.666 1.133-1.138 2.027-1.138.906 0 1.575.467 2.04 1.13.557.8.807 1.9.807 2.766 0 1.043-.46 1.715-.96 2.43.255.077.504.17.744.28l.026.013c.428.196.83.443 1.199.729.57.442.978.893 1.313 1.393.328.49.581 1.018.85 1.632a.42.42 0 01-.385.588H4.904a.422.422 0 01-.37-.621zM.495 9.957a.494.494 0 110-.988h2.148a.493.493 0 110 .988H.495zm1.568-5.975a.495.495 0 01-.99 0V2.487c0-.683.281-1.304.731-1.754A2.472 2.472 0 013.562 0h13.951A2.488 2.488 0 0120 2.487v13.952c0 .683-.28 1.305-.73 1.755a2.475 2.475 0 01-1.757.732H3.562a2.48 2.48 0 01-1.758-.73 2.487 2.487 0 01-.73-1.757v-1.495a.495.495 0 01.989 0v1.495a1.498 1.498 0 001.499 1.498h13.951c.412 0 .787-.168 1.059-.44.27-.27.44-.646.44-1.058V2.487A1.499 1.499 0 0017.513.989H3.562c-.412 0-.787.169-1.059.44a1.49 1.49 0 00-.44 1.058v1.495zM.495 6.875a.495.495 0 010-.99h2.148a.494.494 0 010 .99H.495zm0 6.166a.495.495 0 010-.99h2.148a.494.494 0 010 .99H.495zm5.577.123c-.189.29-.354.6-.515.936h9.962a7.3 7.3 0 00-.51-.908 5.005 5.005 0 00-1.133-1.197 5.282 5.282 0 00-1.033-.63l-.024-.011a5.15 5.15 0 00-1.14-.367.42.42 0 01-.3-.639l.014-.023c.097-.148.21-.308.32-.466.43-.612.829-1.181.829-1.981 0-.727-.203-1.638-.653-2.284-.316-.45-.76-.768-1.351-.768-.579 0-1.021.322-1.338.775-.457.654-.667 1.57-.667 2.277 0 .54.074.941.23 1.294.16.361.416.695.77 1.085l.009.01.03.035a.421.421 0 01-.265.69 4.02 4.02 0 00-1.09.31 4.58 4.58 0 00-1.024.629 5.21 5.21 0 00-1.12 1.234zm-1.539 1.158a.422.422 0 01.371-.222l-.37.222z" fill="#000"/></svg>